<svg xmlns="http://www.w3.org/2000/svg" xmlns:xlink="http://www.w3.org/1999/xlink" viewBox="0 0 331 80"><defs><style>.cls-1{fill:#385272;}.cls-2,.cls-4{fill:#fff;}.cls-2{stroke:#385272;stroke-miterlimit:10;stroke-width:1.11px;}.cls-3{fill:#394e70;}</style><symbol id="Ring" data-name="Ring" viewBox="0 0 32 32"><circle class="cls-1" cx="16" cy="16" r="16"/><circle class="cls-2" cx="16" cy="16" r="14.17"/></symbol></defs><title>V5_Dashboard_logo_1280</title><g id="Layer_4" data-name="Layer 4"><polyline class="cls-3" points="18.35 0 331 0 331 80 1 80"/></g><g id="Layer_3" data-name="Layer 3"><use width="32" height="32" transform="translate(262 17.48) scale(1.41)" xlink:href="#Ring"/><rect class="cls-1" x="282.38" y="26.9" width="4.24" height="4.24" rx="0.76"/><rect class="cls-1" x="276.67" y="28.43" width="4.24" height="4.24" rx="0.76" transform="translate(22.08 143.49) rotate(-30)"/><rect class="cls-1" x="272.49" y="32.61" width="4.24" height="4.24" rx="0.76" transform="translate(107.23 255.18) rotate(-60)"/><rect class="cls-1" x="270.96" y="38.32" width="4.24" height="4.24" rx="0.76" transform="translate(232.64 313.52) rotate(-90)"/><rect class="cls-1" x="272.49" y="44.03" width="4.24" height="4.24" rx="0.76" transform="translate(371.95 307.04) rotate(-120)"/><rect class="cls-1" x="276.67" y="48.21" width="4.24" height="4.24" rx="0.76" transform="translate(495.06 233.31) rotate(-150)"/><rect class="cls-1" x="282.38" y="49.74" width="4.24" height="4.24" rx="0.76" transform="translate(569 103.71) rotate(-180)"/><rect class="cls-1" x="288.09" y="48.21" width="4.24" height="4.24" rx="0.76" transform="translate(566.7 -51.19) rotate(150)"/><rect class="cls-1" x="292.27" y="44.03" width="4.24" height="4.24" rx="0.76" transform="translate(481.55 -185.73) rotate(120)"/><rect class="cls-1" x="293.8" y="38.32" width="4.24" height="4.24" rx="0.76" transform="translate(336.36 -255.48) rotate(90)"/><rect class="cls-1" x="292.27" y="32.61" width="4.24" height="4.24" rx="0.76" transform="translate(177.27 -237.59) rotate(60)"/><circle class="cls-1" cx="284.5" cy="40.44" r="10.19"/><rect class="cls-1" x="288.09" y="28.43" width="4.24" height="4.24" rx="0.76" transform="translate(54.15 -141.01) rotate(30)"/><circle class="cls-4" cx="284.5" cy="40.44" r="5.74"/></g><g id="Layer_2" data-name="Layer 2"><path class="cls-4" d="M124,41.63h4.82V22.27H124Zm24.07-19.36V34.11L137.75,22.27h-4.42V41.63h4.81V29.23l10.69,12.4h4V22.27Zm24,0V34.11L161.7,22.27h-4.42V41.63h4.81V29.23l10.69,12.4h4.05V22.27ZM183.43,25a9.44,9.44,0,0,0,0,14,12.31,12.31,0,0,0,16,0,9.34,9.34,0,0,0,3.11-7,9.47,9.47,0,0,0-3.06-7,12.28,12.28,0,0,0-16.06,0M187,36.26a5.74,5.74,0,0,1-1.68-4.3,5.75,5.75,0,0,1,1.68-4.3A6.17,6.17,0,0,1,191.47,26a6.07,6.07,0,0,1,4.42,1.63,5.72,5.72,0,0,1,1.67,4.3,5.72,5.72,0,0,1-1.67,4.3,6.06,6.06,0,0,1-4.42,1.63A6.16,6.16,0,0,1,187,36.26m30.22-14-4.85,11.06-5.13-11.06H202l9.39,19.63h2.09l9-19.63Zm10.78,0-7.8,19.36h5.11l1.45-3.83h8.65l1.6,3.83h5.19l-8.58-19.36Zm0,12.15,2.85-7.52L234,34.42Z"/><path class="cls-4" d="M124.79,49.36h3.86v.46h-3.32v3.11h3v.46h-3v3.78h-.54Z"/><path class="cls-4" d="M134.5,54.33a2.69,2.69,0,0,1-2.66,3,2.61,2.61,0,0,1-2.55-2.86,2.68,2.68,0,0,1,2.63-3A2.58,2.58,0,0,1,134.5,54.33Zm-4.66.07a2.22,2.22,0,0,0,2,2.44,2.49,2.49,0,0,0,0-4.91,2.21,2.21,0,0,0-2.06,2.47Z"/><path class="cls-4" d="M140.67,54.33a2.7,2.7,0,0,1-2.67,3,2.62,2.62,0,0,1-2.55-2.86,2.69,2.69,0,0,1,2.63-3A2.59,2.59,0,0,1,140.67,54.33ZM136,54.4a2.22,2.22,0,0,0,2,2.44,2.26,2.26,0,0,0,2.07-2.47,2.08,2.08,0,1,0-4.1,0Z"/><path class="cls-4" d="M146.51,48.94v6.93c0,.42,0,.91.05,1.3h-.5l0-1.05h0a2.11,2.11,0,0,1-2,1.18,2.54,2.54,0,0,1-2.4-2.81c0-1.85,1.14-3,2.5-3a2,2,0,0,1,1.82,1h0V48.94ZM146,53.82a2.84,2.84,0,0,0-.05-.51,1.8,1.8,0,0,0-1.75-1.37c-1.22,0-2,1.05-2,2.5,0,1.25.63,2.4,2,2.4a1.85,1.85,0,0,0,1.79-1.45,2.4,2.4,0,0,0,.05-.46Z"/><path class="cls-4" d="M150.94,49.45a9.34,9.34,0,0,1,1.67-.15,2.8,2.8,0,0,1,2.06.67,2.07,2.07,0,0,1,.6,1.53,2.22,2.22,0,0,1-.54,1.55,3,3,0,0,1-2.3.88,3.37,3.37,0,0,1-1-.09v3.33h-.54Zm.54,3.9a3.74,3.74,0,0,0,1,.11c1.39,0,2.24-.68,2.24-1.92s-.9-1.77-2.14-1.77a5.16,5.16,0,0,0-1.1.09Z"/><path class="cls-4" d="M156.5,53.28c0-.55,0-1.13-.05-1.66H157l0,1.12h0a1.72,1.72,0,0,1,1.59-1.25l.22,0V52a1.23,1.23,0,0,0-.27,0c-.76,0-1.31.67-1.46,1.55a3.29,3.29,0,0,0-.05.54v3.06h-.54Z"/><path class="cls-4" d="M164.56,54.33a2.7,2.7,0,0,1-2.67,3,2.62,2.62,0,0,1-2.55-2.86,2.69,2.69,0,0,1,2.63-3A2.59,2.59,0,0,1,164.56,54.33Zm-4.66.07a2.22,2.22,0,0,0,2,2.44A2.26,2.26,0,0,0,164,54.37a2.08,2.08,0,1,0-4.1,0Z"/><path class="cls-4" d="M169.81,56.93a3.54,3.54,0,0,1-1.63.37,2.62,2.62,0,0,1-2.67-2.85,2.8,2.8,0,0,1,2.87-3,2.94,2.94,0,0,1,1.47.35l-.2.45a2.66,2.66,0,0,0-1.32-.32,2.24,2.24,0,0,0-2.27,2.45,2.2,2.2,0,0,0,2.21,2.4,3.35,3.35,0,0,0,1.39-.31Z"/><path class="cls-4" d="M171.22,54.33c0,1.79,1,2.48,2.12,2.48a3.24,3.24,0,0,0,1.54-.31l.14.44a3.63,3.63,0,0,1-1.75.36,2.56,2.56,0,0,1-2.6-2.81c0-1.85,1.07-3,2.5-3A2.27,2.27,0,0,1,175.34,54a1.22,1.22,0,0,1,0,.33Zm3.55-.44a1.71,1.71,0,0,0-1.66-2,2,2,0,0,0-1.85,2Z"/><path class="cls-4" d="M176.53,56.44a2.41,2.41,0,0,0,1.25.38c.88,0,1.3-.47,1.3-1s-.37-.94-1.17-1.26-1.41-.85-1.41-1.52a1.55,1.55,0,0,1,1.71-1.51,2.15,2.15,0,0,1,1.23.35l-.22.45a1.81,1.81,0,0,0-1.1-.34,1,1,0,0,0-1.08,1c0,.58.4.83,1.15,1.14.9.35,1.43.8,1.43,1.65a1.65,1.65,0,0,1-1.87,1.6,2.74,2.74,0,0,1-1.42-.4Z"/><path class="cls-4" d="M180.85,56.44a2.45,2.45,0,0,0,1.26.38c.88,0,1.29-.47,1.29-1s-.37-.94-1.17-1.26-1.41-.85-1.41-1.52a1.56,1.56,0,0,1,1.71-1.51,2.13,2.13,0,0,1,1.23.35l-.22.45a1.79,1.79,0,0,0-1.1-.34,1,1,0,0,0-1.08,1c0,.58.4.83,1.15,1.14.91.35,1.44.8,1.44,1.65a1.66,1.66,0,0,1-1.88,1.6,2.68,2.68,0,0,1-1.41-.4Z"/><path class="cls-4" d="M186.13,50a.46.46,0,0,1-.43.48h0a.46.46,0,0,1-.43-.47h0a.49.49,0,0,1,.46-.49.46.46,0,0,1,.44.47Zm-.72,7.15V51.61H186v5.56Z"/><path class="cls-4" d="M187.83,52.94c0-.51,0-.89,0-1.33h.51l0,1h0a2.1,2.1,0,0,1,1.92-1.14c.54,0,1.94.27,1.94,2.35v3.34h-.55V53.88c0-1-.4-1.92-1.54-1.92a1.77,1.77,0,0,0-1.67,1.27,1.69,1.69,0,0,0-.08.5v3.44h-.55Z"/><path class="cls-4" d="M198.47,56.36a3.3,3.3,0,0,1-.75,2.57,2.76,2.76,0,0,1-1.89.67,3.09,3.09,0,0,1-1.76-.48l.19-.44a3,3,0,0,0,1.65.46c1.17,0,2-.61,2-2.26v-.79h0A2.07,2.07,0,0,1,196,57.17a2.52,2.52,0,0,1-2.39-2.73,2.67,2.67,0,0,1,2.5-3A2,2,0,0,1,198,52.55h0l0-.94h.51c0,.41-.05.86-.05,1.43Zm-.54-2.62a1.88,1.88,0,0,0-.07-.53,1.82,1.82,0,0,0-1.73-1.28c-1.19,0-2,1-2,2.45,0,1.25.66,2.33,2,2.33a1.8,1.8,0,0,0,1.71-1.25,1.71,1.71,0,0,0,.11-.59Z"/><path class="cls-4" d="M202.64,56.3a3.1,3.1,0,0,0,1.72.52,1.66,1.66,0,0,0,1.88-1.62c0-.88-.45-1.39-1.58-1.83s-2-1.09-2-2.16a2.08,2.08,0,0,1,2.28-2,3.05,3.05,0,0,1,1.55.37l-.21.47a2.39,2.39,0,0,0-1.38-.37,1.48,1.48,0,0,0-1.69,1.42c0,.87.5,1.31,1.62,1.75,1.29.52,2,1.1,2,2.27a2.19,2.19,0,0,1-2.48,2.16,3.52,3.52,0,0,1-1.86-.53Z"/><path class="cls-4" d="M213.08,54.33a2.7,2.7,0,0,1-2.67,3,2.62,2.62,0,0,1-2.55-2.86,2.69,2.69,0,0,1,2.63-3A2.59,2.59,0,0,1,213.08,54.33Zm-4.66.07a2.22,2.22,0,0,0,2,2.44,2.26,2.26,0,0,0,2.08-2.47,2.08,2.08,0,1,0-4.1,0Z"/><path class="cls-4" d="M214.53,57.17V52.05h-.8v-.44h.8v-.3a2.76,2.76,0,0,1,.61-2,1.88,1.88,0,0,1,2.06-.3l-.17.44a1.45,1.45,0,0,0-.71-.16c-1,0-1.25.95-1.25,2v.31h1.5v.44h-1.5v5.12Z"/><path class="cls-4" d="M218.4,50.38v1.23H220v.44H218.4v3.61c0,.71.22,1.16.81,1.16a1.74,1.74,0,0,0,.64-.09l.07.43a1.91,1.91,0,0,1-.78.13,1.13,1.13,0,0,1-.95-.4,2,2,0,0,1-.35-1.32V52.05h-.94v-.44h.95v-1Z"/><path class="cls-4" d="M221.24,51.61l.93,3.16c.2.65.36,1.21.47,1.74h0a17.11,17.11,0,0,1,.56-1.74l1.11-3.16h.52l1.06,3.14c.23.67.4,1.24.55,1.76h0c.12-.52.29-1.08.5-1.75l1-3.15h.57l-1.86,5.56h-.49l-1.05-3.09a17.39,17.39,0,0,1-.58-1.9h0a16.25,16.25,0,0,1-.6,1.91l-1.11,3.08h-.48l-1.71-5.56Z"/><path class="cls-4" d="M233.16,55.85a11.69,11.69,0,0,0,.08,1.32h-.5l-.08-.8h0a2.07,2.07,0,0,1-1.77.94,1.52,1.52,0,0,1-1.64-1.53c0-1.29,1.14-2.07,3.4-2v-.15c0-.56-.11-1.66-1.43-1.65a2.39,2.39,0,0,0-1.39.42l-.17-.41a3,3,0,0,1,1.62-.47c1.61,0,1.91,1.2,1.91,2.2Zm-.54-1.66c-1.22,0-2.82.15-2.82,1.49a1.06,1.06,0,0,0,1.11,1.16,1.69,1.69,0,0,0,1.65-1.12,1.91,1.91,0,0,0,.06-.33Z"/><path class="cls-4" d="M235,53.28c0-.55,0-1.13,0-1.66h.51l0,1.12h0a1.74,1.74,0,0,1,1.59-1.25l.22,0V52a1.23,1.23,0,0,0-.27,0c-.76,0-1.3.67-1.46,1.55a4.93,4.93,0,0,0-.05.54v3.06H235Z"/><path class="cls-4" d="M238.36,54.33c0,1.79,1,2.48,2.11,2.48A3.29,3.29,0,0,0,242,56.5l.13.44a3.63,3.63,0,0,1-1.75.36,2.56,2.56,0,0,1-2.6-2.81c0-1.85,1.07-3,2.51-3A2.27,2.27,0,0,1,242.48,54a1.84,1.84,0,0,1,0,.33Zm3.54-.44a1.71,1.71,0,0,0-1.66-2,2,2,0,0,0-1.85,2Z"/></g></svg>